<svg width="60" height="60" viewBox="0 0 60 60" xmlns="http://www.w3.org/2000/svg" xmlns:xlink="http://www.w3.org/1999/xlink">
    <defs>
        <path id="b9idiswa9a" d="M0 0h60v60H0z"/>
    </defs>
    <g fill="none" fill-rule="evenodd">
        <mask id="d5rq5brthb" fill="#fff">
            <use xlink:href="#b9idiswa9a"/>
        </mask>
        <path d="M13.145 13.88c-1.129 0-1.845.88-1.757 1.741 1.724 17.413 15.578 31.267 32.99 32.991.862.088 1.743-.628 1.743-1.757V39.95c0-.834-.534-1.575-1.327-1.839l-6.712-2.238a1.942 1.942 0 0 0-1.984.47l-1.075 1.074c-1.284 1.284-3.332 1.53-4.882.47-3.67-2.51-5.806-4.633-8.085-8.062-1.03-1.552-.76-3.565.503-4.826l1.098-1.098c.52-.52.7-1.288.467-1.984l-2.236-6.712a1.937 1.937 0 0 0-1.84-1.327h-6.903zm-5.617 2.125C7.19 12.603 9.989 10 13.145 10h6.904a5.816 5.816 0 0 1 5.518 3.978l2.239 6.712a5.818 5.818 0 0 1-1.407 5.955l-1.08 1.08c1.959 2.94 3.72 4.706 6.975 6.937l1.061-1.061a5.818 5.818 0 0 1 5.955-1.407l6.712 2.239A5.816 5.816 0 0 1 50 39.95v6.904c0 3.156-2.603 5.955-6.005 5.617-19.252-1.906-34.56-17.215-36.467-36.467zm26.954-4.065c0-1.071.87-1.94 1.94-1.94C43.92 10 50 16.08 50 23.578a1.94 1.94 0 0 1-3.88 0c0-5.355-4.343-9.699-9.698-9.699a1.94 1.94 0 0 1-1.94-1.94zm0 7.759c0-1.071.87-1.94 1.94-1.94a5.819 5.819 0 0 1 5.82 5.82 1.94 1.94 0 0 1-3.88 0 1.94 1.94 0 0 0-1.94-1.94 1.94 1.94 0 0 1-1.94-1.94z" fill="#76856A" mask="url(#d5rq5brthb)"/>
    </g>
</svg>
