<svg width="26" height="26" viewBox="0 0 26 26" xmlns="http://www.w3.org/2000/svg" xmlns:xlink="http://www.w3.org/1999/xlink">
    <defs>
        <path id="b2ux02d4qa" d="M0 0h26v26H0z"/>
    </defs>
    <g fill="none" fill-rule="evenodd">
        <mask id="r05a6kkcub" fill="#fff">
            <use xlink:href="#b2ux02d4qa"/>
        </mask>
        <path d="M7.99 13A5.008 5.008 0 1 0 13 7.992 5.008 5.008 0 0 0 7.99 13zm1.755.001a3.253 3.253 0 1 1 6.507 0 3.253 3.253 0 0 1-6.507 0zm9.63-5.193a1.168 1.168 0 1 0-2.336 0 1.168 1.168 0 0 0 2.335 0zm.017-4.04a7.157 7.157 0 0 0-2.369-.454c-1.043-.046-1.373-.059-4.019-.059-2.645 0-2.984 0-4.019.059a7.1 7.1 0 0 0-2.366.455A4.983 4.983 0 0 0 3.767 6.62a7.134 7.134 0 0 0-.454 2.368c-.047 1.043-.06 1.373-.06 4.02 0 2.645 0 2.982.06 4.019.016.81.169 1.61.454 2.369a4.994 4.994 0 0 0 2.853 2.851 7.133 7.133 0 0 0 2.367.488c1.044.045 1.374.06 4.02.06 2.645 0 2.984 0 4.019-.06.809-.016 1.61-.17 2.368-.454a4.997 4.997 0 0 0 2.852-2.852 7.134 7.134 0 0 0 .454-2.369c.047-1.042.06-1.372.06-4.019 0-2.646 0-2.982-.06-4.019a7.13 7.13 0 0 0-.456-2.402 4.989 4.989 0 0 0-2.852-2.851zm1.196 15.007a3.236 3.236 0 0 1-1.855 1.854 5.4 5.4 0 0 1-1.81.337c-1.028.047-1.319.06-3.958.06-2.64 0-2.91 0-3.96-.06a5.373 5.373 0 0 1-1.807-.337 3.233 3.233 0 0 1-1.863-1.854 5.504 5.504 0 0 1-.337-1.808c-.046-1.029-.057-1.32-.057-3.958 0-2.64 0-2.91.057-3.96.008-.624.12-1.241.337-1.827a3.235 3.235 0 0 1 1.863-1.855 5.427 5.427 0 0 1 1.808-.337c1.03-.047 1.32-.06 3.96-.06 2.64 0 2.91 0 3.958.06.618.008 1.23.121 1.809.337a3.24 3.24 0 0 1 1.855 1.855c.212.578.327 1.19.337 1.808.046 1.03.058 1.32.058 3.96 0 2.638 0 2.922-.047 3.958h-.011v-.001a5.464 5.464 0 0 1-.337 1.828z" fill="#76856A" mask="url(#r05a6kkcub)"/>
    </g>
</svg>
