<svg width="34" height="34" viewBox="0 0 34 34" xmlns="http://www.w3.org/2000/svg" xmlns:xlink="http://www.w3.org/1999/xlink">
    <defs>
        <path id="lznjz7o7ha" d="M0 0h34v34H0z"/>
    </defs>
    <g fill="none" fill-rule="evenodd">
        <mask id="bj474w1lmb" fill="#fff">
            <use xlink:href="#lznjz7o7ha"/>
        </mask>
        <path d="m29.127 13.943-1.215-.666-10.928-6.05a1.304 1.304 0 0 0-1.19 0l-10.93 6.05a1.21 1.21 0 0 0 0 2.106l3.025 1.67v5.735c0 .963.383 1.886 1.067 2.567a3.65 3.65 0 0 0 2.576 1.063h9.714a3.65 3.65 0 0 0 2.576-1.063 3.624 3.624 0 0 0 1.067-2.567v-5.735l2.43-1.356v3.461c0 .669.545 1.211 1.216 1.211.67 0 1.215-.542 1.215-1.21v-4.163a1.21 1.21 0 0 0-.623-1.053zm-6.667 8.845c0 .67-.544 1.211-1.215 1.211h-9.713a1.213 1.213 0 0 1-1.216-1.21v-4.393l5.477 3.025c.183.098.387.147.595.143a1.303 1.303 0 0 0 .57-.13l.024-.013 5.477-3.025.001 4.392zm-6.071-3.8L7.96 14.32l8.428-4.673 8.427 4.673-8.427 4.669z" fill="#FFF" fill-rule="nonzero" mask="url(#bj474w1lmb)"/>
    </g>
</svg>
