<svg width="16" height="16" viewBox="0 0 16 16" xmlns="http://www.w3.org/2000/svg" xmlns:xlink="http://www.w3.org/1999/xlink">
    <defs>
        <path id="0dgmeu6j2a" d="M0 0h16v16H0z"/>
    </defs>
    <g fill="none" fill-rule="evenodd">
        <mask id="zd6qiqzihb" fill="#fff">
            <use xlink:href="#0dgmeu6j2a"/>
        </mask>
        <path d="M4.667 8.667V7.333H8.78L7.06 5.607l.94-.94L11.333 8 8 11.333l-.94-.94 1.72-1.726H4.667zM1.333 8a6.667 6.667 0 1 1 13.334 0A6.667 6.667 0 0 1 1.333 8c0-2.455 0-2.455 0 0zm1.334 0a5.333 5.333 0 1 1 10.666 0A5.333 5.333 0 0 1 2.667 8c0-1.964 0-1.964 0 0z" fill="#E6E6E6" mask="url(#zd6qiqzihb)"/>
    </g>
</svg>
