<svg width="34" height="34" viewBox="0 0 34 34" xmlns="http://www.w3.org/2000/svg" xmlns:xlink="http://www.w3.org/1999/xlink">
    <defs>
        <path id="9eyvkdahra" d="M0 0h34v34H0z"/>
    </defs>
    <g fill="none" fill-rule="evenodd">
        <mask id="6euxz7ouib" fill="#fff">
            <use xlink:href="#9eyvkdahra"/>
        </mask>
        <path d="M27.929 9.31h-5.465V7.488a1.821 1.821 0 0 0-1.821-1.821h-7.286a1.821 1.821 0 0 0-1.821 1.821V9.31H6.07A1.821 1.821 0 0 0 4.25 11.13V26.31c0 1.005.815 1.821 1.821 1.821H27.93a1.821 1.821 0 0 0 1.821-1.821V11.13a1.821 1.821 0 0 0-1.821-1.821zM13.357 7.488h7.286V9.31h-7.286V7.488zm14.572 3.643v4.56a.905.905 0 0 0-.407.09 37.789 37.789 0 0 1-7.614 2.587 1.821 1.821 0 0 0-1.694-1.166h-2.428a1.821 1.821 0 0 0-1.712 1.215 33.593 33.593 0 0 1-7.699-2.635.899.899 0 0 0-.334-.091v-4.56H27.93zm-9.715 7.893v1.821h-2.428v-1.821h2.428zM6.071 26.31v-8.628a36.064 36.064 0 0 0 7.893 2.599v.564c0 1.006.816 1.822 1.822 1.822h2.428a1.821 1.821 0 0 0 1.822-1.822v-.655a31.869 31.869 0 0 0 7.893-2.648v8.768H6.07z" fill="#FFF" mask="url(#6euxz7ouib)"/>
    </g>
</svg>
